<?xml version="1.0" encoding="utf-8"?>
<!-- Generator: Adobe Illustrator 24.2.3, SVG Export Plug-In . SVG Version: 6.00 Build 0)  -->
<svg version="1.1" id="Layer_1" xmlns="http://www.w3.org/2000/svg" xmlns:xlink="http://www.w3.org/1999/xlink" x="0px" y="0px"
	 viewBox="0 0 25.5 25.5" style="enable-background:new 0 0 25.5 25.5;" xml:space="preserve">
<style type="text/css">
	.st0{fill-rule:evenodd;clip-rule:evenodd;fill:#FACD62;}
</style>
<path class="st0" d="M12.8,18.9c3.4,0,6.1-2.8,6.1-6.1s-2.8-6.1-6.1-6.1s-6.1,2.8-6.1,6.1S9.4,18.9,12.8,18.9z M12.8,0
	C5.7,0,0,5.7,0,12.8s5.7,12.8,12.8,12.8s12.8-5.7,12.8-12.8S19.8,0,12.8,0z M3,12.8C3,7.4,7.4,3,12.8,3s9.8,4.4,9.8,9.8
	s-4.4,9.8-9.8,9.8S3,18.2,3,12.8z"/>
</svg>
