<svg xmlns="http://www.w3.org/2000/svg" width="29.369" height="29.369" viewBox="0 0 29.369 29.369">
    <path fill="#fff" d="M477.4 1073.428h-24.964a2.2 2.2 0 0 0-2.2 2.2v24.972a2.2 2.2 0 0 0 2.2 2.2H477.4a2.2 2.2 0 0 0 2.2-2.2v-24.966a2.2 2.2 0 0 0-2.2-2.2zm-17.6 23.652h-4.021v-12.1h4.021zm-2.011-13.749h-.026a2.3 2.3 0 1 1 .026 0zm16.511 13.749h-4.021v-6.472c0-1.626-.582-2.736-2.037-2.736a2.2 2.2 0 0 0-2.063 1.471 2.765 2.765 0 0 0-.132.981v6.756h-4.021s.053-10.962 0-12.1h4.021v1.714a3.991 3.991 0 0 1 3.624-2c2.645 0 4.629 1.729 4.629 5.445z" transform="translate(-450.236 -1073.428)"/>
</svg>
