<svg xmlns="http://www.w3.org/2000/svg" width="27.867" height="22.661" viewBox="0 0 27.867 22.661">
    <path fill="#fff" d="M423.1 1079.473a11.573 11.573 0 0 1-3.29.9 5.748 5.748 0 0 0 2.52-3.167 11.384 11.384 0 0 1-3.635 1.383 5.72 5.72 0 0 0-9.892 3.914 6.316 6.316 0 0 0 .145 1.3 16.238 16.238 0 0 1-11.788-5.978 5.743 5.743 0 0 0 1.773 7.639 5.8 5.8 0 0 1-2.587-.714v.078a5.732 5.732 0 0 0 4.582 5.615 5.749 5.749 0 0 1-2.576.1 5.718 5.718 0 0 0 5.342 3.97 11.47 11.47 0 0 1-7.1 2.454 11.075 11.075 0 0 1-1.361-.078 16.278 16.278 0 0 0 8.754 2.554c10.516 0 16.271-8.721 16.271-16.271 0-.245 0-.491-.011-.736a11.666 11.666 0 0 0 2.853-2.963z" transform="translate(-395.235 -1076.782)"/>
</svg>
