<svg xmlns="http://www.w3.org/2000/svg" viewBox="0 0 42 42"><defs><style>.cls-1{fill:#e14e3b;}.cls-2{fill:#fff;}</style></defs><g id="Layer_2" data-name="Layer 2"><g id="Layer_1-2" data-name="Layer 1"><rect class="cls-1" width="42" height="42"/><path class="cls-2" d="M28,12.21a5,5,0,0,1,5,5v4a4.78,4.78,0,0,1-.1,1H33v6.58a1,1,0,0,1-1.71.71L28,26.21H14a5,5,0,0,1-5-5v-4a5,5,0,0,1,5-5ZM15.19,17.07a2,2,0,1,0,2,2A2,2,0,0,0,15.19,17.07Zm6,0a2,2,0,1,0,2,2A2,2,0,0,0,21.19,17.07Zm6,0a2,2,0,1,0,2,2A2,2,0,0,0,27.19,17.07Z"/></g></g></svg>