<svg xmlns="http://www.w3.org/2000/svg" width="155" height="20" fill="none" viewBox="0 0 155 20">
    <path fill="#fff" fill-rule="evenodd" d="M66.39 13.01h10.16l-5.364-8.656-9.855 15.641-4.492.005L68.835 1.218C69.344.456 70.22 0 71.179 0c.946 0 1.81.442 2.316 1.184L85.535 20l-4.492-.005-2.112-3.493H68.64l-2.25-3.493zm46.624 3.497V.191h-3.813v17.91c0 .494.202.966.555 1.323.375.364.868.571 1.395.571h17.368l2.243-3.488h-17.748zm-63.005-2.922c3.7 0 6.691-2.998 6.691-6.696 0-3.698-2.99-6.698-6.69-6.698H33.338v19.804h3.81V3.685h12.598c1.775 0 3.205 1.431 3.205 3.204 0 1.766-1.43 3.203-3.205 3.203l-10.73-.005 11.36 9.908h5.536l-7.647-6.415 1.743.005zm-40.106 6.41C4.435 19.995 0 15.565 0 10.092c0-5.468 4.435-9.9 9.903-9.9h11.513c5.469 0 9.901 4.432 9.901 9.9 0 5.476-4.432 9.908-9.9 9.908l-11.514-.005zm11.253-3.488c3.541 0 6.415-2.871 6.415-6.415 0-3.539-2.874-6.408-6.415-6.408H10.16c-3.541 0-6.413 2.87-6.413 6.408 0 3.544 2.872 6.415 6.413 6.415h10.995zm72.328 3.488c-5.471 0-9.908-4.43-9.908-9.903 0-5.468 4.437-9.9 9.908-9.9h13.675l-2.245 3.492H93.742c-3.546 0-6.422 2.87-6.422 6.408 0 3.544 2.876 6.415 6.422 6.415h13.723l-2.229 3.488H93.484zm46.585-3.488c-2.933 0-5.413-1.971-6.173-4.66h16.277l2.249-3.491h-18.528c.759-2.699 3.237-4.672 6.175-4.672h11.172l2.243-3.493h-13.68c-5.464 0-9.898 4.433-9.898 9.901 0 5.473 4.434 9.903 9.898 9.903h11.748l2.243-3.488h-13.726z" clip-rule="evenodd"/>
</svg>
