<svg xmlns="http://www.w3.org/2000/svg" width="26" height="27" fill="none" viewBox="0 0 26 27">
    <path fill="#F0CC71" fill-rule="evenodd" d="M3.23 13.298c0-5.396 4.374-9.77 9.77-9.77s9.77 4.374 9.77 9.77-4.374 9.77-9.77 9.77-9.77-4.375-9.77-9.77zM13 .528C5.947.528.23 6.245.23 13.298c0 7.052 5.717 12.77 12.77 12.77 7.052 0 12.77-5.718 12.77-12.77C25.77 6.245 20.052.528 13 .528zm0 18.917c3.395 0 6.147-2.752 6.147-6.147 0-3.395-2.752-6.148-6.147-6.148-3.395 0-6.147 2.753-6.147 6.148 0 3.395 2.752 6.147 6.147 6.147z" clip-rule="evenodd"/>
</svg>
